<svg width="513" height="730" viewBox="0 0 513 730" fill="none" xmlns="http://www.w3.org/2000/svg">
<path d="M29.6818 707.803C29.6818 707.803 0.363788 606.465 45.8303 523.137C92.0436 438.441 212.92 371.614 277.782 444.871C312.674 484.278 321.585 529.162 289.543 569.187C257.608 609.077 211.003 611.122 166.931 584.725C72.5736 528.21 95.7768 363.924 163.602 278.022C231.564 191.947 381.32 138.436 448.579 229.387C480.037 271.925 487.602 321.754 454.631 360.905C422.312 399.282 374.982 403.144 332.019 376.444C240.357 319.48 250.072 152.589 323.932 75.7428C372.159 25.567 426.266 11.1756 492.653 30.8666" stroke="#43FABD" stroke-width="42" stroke-linecap="round"/>
</svg>
