 <svg version="1.1" id="Layer_1" xmlns="http://www.w3.org/2000/svg" xmlns:xlink="http://www.w3.org/1999/xlink" x="0px" y="0px" width="100%" height="100%" viewBox="0 0 246.6 48.5" style="enable-background:new 0 0 246.6 48.5" xml:space="preserve"> <style>.st0{fill:none;stroke:#000;stroke-width:3.5;stroke-linecap:square;stroke-linejoin:round;stroke-miterlimit:10}.st1{fill-rule:evenodd;clip-rule:evenodd;stroke:#000;stroke-width:.25;stroke-miterlimit:10}@keyframes animate-svg-stroke-1{0%{stroke-dashoffset:238.66958618164062px;stroke-dasharray:238.66958618164062px}100%{stroke-dashoffset:0;stroke-dasharray:238.66958618164062px}}.svg-elem-1{animation:animate-svg-stroke-1 1s cubic-bezier(.47,0,.745,.715) 0s both,animate-svg-fill-1 .7s cubic-bezier(.47,0,.745,.715) .8s both}@keyframes animate-svg-stroke-2{0%{stroke-dashoffset:103.59999084472656px;stroke-dasharray:103.59999084472656px}100%{stroke-dashoffset:0;stroke-dasharray:103.59999084472656px}}@keyframes animate-svg-fill-2{0%{fill:transparent}100%{fill:#000}}.svg-elem-2{animation:animate-svg-stroke-2 1s cubic-bezier(.47,0,.745,.715) .12s both,animate-svg-fill-2 .7s cubic-bezier(.47,0,.745,.715) .9s both}@keyframes animate-svg-stroke-3{0%{stroke-dashoffset:146.31936645507812px;stroke-dasharray:146.31936645507812px}100%{stroke-dashoffset:0;stroke-dasharray:146.31936645507812px}}@keyframes animate-svg-fill-3{0%{fill:transparent}100%{fill:#000}}.svg-elem-3{animation:animate-svg-stroke-3 1s cubic-bezier(.47,0,.745,.715) .24s both,animate-svg-fill-3 .7s cubic-bezier(.47,0,.745,.715) 1s both}@keyframes animate-svg-stroke-4{0%{stroke-dashoffset:145.3148193359375px;stroke-dasharray:145.3148193359375px}100%{stroke-dashoffset:0;stroke-dasharray:145.3148193359375px}}@keyframes animate-svg-fill-4{0%{fill:transparent}100%{fill:#000}}.svg-elem-4{animation:animate-svg-stroke-4 1s cubic-bezier(.47,0,.745,.715) .36s both,animate-svg-fill-4 .7s cubic-bezier(.47,0,.745,.715) 1.1s both}@keyframes animate-svg-stroke-5{0%{stroke-dashoffset:101.66871643066406px;stroke-dasharray:101.66871643066406px}100%{stroke-dashoffset:0;stroke-dasharray:101.66871643066406px}}@keyframes animate-svg-fill-5{0%{fill:transparent}100%{fill:#000}}.svg-elem-5{animation:animate-svg-stroke-5 1s cubic-bezier(.47,0,.745,.715) .48s both,animate-svg-fill-5 .7s cubic-bezier(.47,0,.745,.715) 1.2000000000000002s both}@keyframes animate-svg-stroke-6{0%{stroke-dashoffset:135.14157104492188px;stroke-dasharray:135.14157104492188px}100%{stroke-dashoffset:0;stroke-dasharray:135.14157104492188px}}@keyframes animate-svg-fill-6{0%{fill:transparent}100%{fill:#000}}.svg-elem-6{animation:animate-svg-stroke-6 1s cubic-bezier(.47,0,.745,.715) .6s both,animate-svg-fill-6 .7s cubic-bezier(.47,0,.745,.715) 1.3s both}@keyframes animate-svg-stroke-7{0%{stroke-dashoffset:21.43079376220703px;stroke-dasharray:21.43079376220703px}100%{stroke-dashoffset:0;stroke-dasharray:21.43079376220703px}}@keyframes animate-svg-fill-7{0%{fill:transparent}100%{fill:#000}}.svg-elem-7{animation:animate-svg-stroke-7 1s cubic-bezier(.47,0,.745,.715) .72s both,animate-svg-fill-7 .7s cubic-bezier(.47,0,.745,.715) 1.4000000000000001s both}@keyframes animate-svg-stroke-8{0%{stroke-dashoffset:120.77755737304688px;stroke-dasharray:120.77755737304688px}100%{stroke-dashoffset:0;stroke-dasharray:120.77755737304688px}}@keyframes animate-svg-fill-8{0%{fill:transparent}100%{fill:#000}}.svg-elem-8{animation:animate-svg-stroke-8 1s cubic-bezier(.47,0,.745,.715) .84s both,animate-svg-fill-8 .7s cubic-bezier(.47,0,.745,.715) 1.5s both}@keyframes animate-svg-stroke-9{0%{stroke-dashoffset:128.66140747070312px;stroke-dasharray:128.66140747070312px}100%{stroke-dashoffset:0;stroke-dasharray:128.66140747070312px}}@keyframes animate-svg-fill-9{0%{fill:transparent}100%{fill:#000}}.svg-elem-9{animation:animate-svg-stroke-9 1s cubic-bezier(.47,0,.745,.715) .96s both,animate-svg-fill-9 .7s cubic-bezier(.47,0,.745,.715) 1.6s both}</style> <g> <path class="st0 svg-elem-1" d="M4.7,17.9C1.1,10.3,8.3,2.1,16.5,4.1c7.6,1.6,12.8,7.8,18.8,12.2c2.6,1.4,4.9,3.4,7.6,4.8
            c10.4,6,22.8-6.7,12.9-15.5c-3.5-2.9-9.6-2.6-12.2-0.5c-3.3,2.9-5.6,6.7-7.9,10.4c-2.7,4.7-5.9,9.1-8.7,13.7v0.1
            c-2.4,3.5-4.3,7.3-7.3,10.3C11,47.7-1.5,36.5,5.3,27c4.7-6,13-4.3,18.4-0.2c7.5,4.8,13.5,12.4,22.3,14.8c6.8,2.3,15-4.5,12.3-11.6"></path> </g> <g> <g> <polygon class="st1 svg-elem-2" points="77.9,6.6 72.8,6.6 72.8,37.2 93,37.2 93,32.2 77.9,32.2 		"></polygon> <path class="st1 svg-elem-3" d="M105.6,13c-7.1,0-12,5.1-12,12.5c0,5.6,3.1,10,8,11.6c1.3,0.4,2.7,0.7,4.1,0.6c1.4,0,2.8-0.2,4.1-0.6
                c3-0.9,5.6-3,7-5.9l0.2-0.4l-4.7-2l-0.2,0.4c-1,2.1-3.6,3.5-6.4,3.5c-3.2,0.2-6.1-2.2-6.5-5.4h18.2l0-1.1c0.1-4.1-1.1-7.5-3.4-9.9
                C111.7,14.1,108.7,12.9,105.6,13 M111.8,22.6H99.2c0.7-2.9,3.5-4.9,6.5-4.7C108.6,17.7,111.2,19.7,111.8,22.6"></path> <path class="st1 svg-elem-4" d="M131,13c-4.9,0-8.8,2.3-10.3,5.9l1,0.4l2.7,1.1l1,0.4c0.8-2.2,3.3-2.9,5.4-2.9c4.7,0,5.3,2.6,5.3,4.6l0,1
                c-3.3-1-6.9-1.2-10.3-0.5c-4.1,1-6.4,3.6-6.4,7.2c0,3,2,5.6,5.3,6.8c1.3,0.4,2.6,0.7,3.9,0.7c1.5,0,2.9-0.2,4.3-0.6
                c1.3-0.4,2.5-1,3.6-1.9v1.9h4.8V22.8c0.1-1.6-0.2-3.3-0.7-4.8C139.4,14.9,135.6,13,131,13 M124.7,28.7c0.9-1.1,2.3-1.8,3.7-1.9
                c0.4-0.1,0.8-0.1,1.2-0.1c2.2,0.1,4.4,0.5,6.4,1.4v0.7c-0.5,2.6-3.6,4.8-7,4.8c-1.6,0-4.3-0.4-4.8-2.9
                C124.1,29.9,124.2,29.2,124.7,28.7"></path> <polygon class="st1 svg-elem-5" points="159.8,13.6 153.5,29.2 147.2,13.6 141.8,13.6 151.2,37.1 155.8,37.1 165.2,13.6 		"></polygon> <path class="st1 svg-elem-6" d="M184.7,13.6l-6.3,15.6l-6.3-15.6h-5.4l9.1,22.7l-1,2.5c-1.5,3.2-4.3,4.4-7.4,3.1l-1-0.4l-1.9,4.3l1.1,0.4
                c1.3,0.6,2.8,0.8,4.2,0.8c4.2,0,7.9-2.5,9.7-7l1.2-2.9h0l9.4-23.6L184.7,13.6z"></path> <path class="st1 svg-elem-7" d="M188.6,30.9c-1.7,0-3.1,1.4-3.1,3.1s1.4,3.1,3.1,3.1c1.7,0,3.1-1.4,3.1-3.1c0,0,0,0,0,0
                C191.6,32.3,190.3,30.9,188.6,30.9"></path> <path class="st1 svg-elem-8" d="M212.1,29.3c-1.5,2.2-4,3.4-6.7,3.4c-4.1,0-7.3-3.4-7.3-7.4s3.4-7.3,7.4-7.3c2.7,0,5.2,1.6,6.5,4l0.2,0.4
                l4.8-2l-0.1-0.3c-2-4.6-6-7.1-11.5-7.1c-6.8-0.2-12.6,5.1-12.8,11.9c-0.2,6.8,5.1,12.6,11.9,12.8c0.3,0,0.5,0,0.8,0
                c4.3,0,9.7-2,11.6-6.5l0.1-0.3l-4.7-2L212.1,29.3z"></path> <path class="st1 svg-elem-9" d="M231.7,13c-7.2,0-12.8,5.4-12.8,12.3c0,6.9,5.7,12.5,12.6,12.4c0.1,0,0.2,0,0.3,0c7.3,0,12.8-5.3,12.8-12.4
                C244.5,18.4,238.9,13,231.7,13 M239.2,25.3c0.1,4.1-3.2,7.6-7.3,7.7c-4.1,0.1-7.6-3.2-7.7-7.3c-0.1-4.1,3.2-7.6,7.3-7.7
                c0.1,0,0.1,0,0.2,0C235.4,18,239.2,20.5,239.2,25.3"></path> </g> </g> </svg> 