<?xml version="1.0" encoding="UTF-8"?>
<svg id="Calque_1" data-name="Calque 1" xmlns="http://www.w3.org/2000/svg" viewBox="0 0 19 19">
  <path d="M16.5,8.5c.5,0,.99.19,1.36.53.37.34.6.81.63,1.32v.15s0,6,0,6c0,.5-.19.99-.53,1.36-.34.37-.81.6-1.32.63h-.15s-4,0-4,0c-.5,0-.99-.19-1.36-.53-.37-.34-.6-.81-.63-1.32v-.15s0-6,0-6c0-.5.19-.99.53-1.36.34-.37.81-.6,1.32-.63h.15s4,0,4,0ZM6.5,12.5c.53,0,1.04.21,1.41.59.38.38.59.88.59,1.41v2c0,.53-.21,1.04-.59,1.41-.38.38-.88.59-1.41.59H2.5c-.53,0-1.04-.21-1.41-.59-.38-.38-.59-.88-.59-1.41v-2c0-.53.21-1.04.59-1.41.38-.38.88-.59,1.41-.59h4ZM6.5.5c.53,0,1.04.21,1.41.59.38.38.59.88.59,1.41v6c0,.53-.21,1.04-.59,1.41-.38.38-.88.59-1.41.59H2.5c-.53,0-1.04-.21-1.41-.59-.38-.38-.59-.88-.59-1.41V2.5c0-.53.21-1.04.59-1.41.38-.38.88-.59,1.41-.59h4ZM16.5.5c.53,0,1.04.21,1.41.59.38.38.59.88.59,1.41v2c0,.53-.21,1.04-.59,1.41-.38.38-.88.59-1.41.59h-4c-.53,0-1.04-.21-1.41-.59-.38-.38-.59-.88-.59-1.41v-2c0-.53.21-1.04.59-1.41.38-.38.88-.59,1.41-.59h4Z" style="fill: none; fill-rule: evenodd; stroke: #000; stroke-miterlimit: 10;"/>
</svg>