<svg width="21" height="19" viewBox="0 0 21 19" fill="none" xmlns="http://www.w3.org/2000/svg">
<path d="M6.73999 5V3C6.73999 2.46957 6.9507 1.96086 7.32578 1.58579C7.70085 1.21071 8.20956 1 8.73999 1H12.74C13.2704 1 13.7791 1.21071 14.1542 1.58579C14.5293 1.96086 14.74 2.46957 14.74 3V5M10.74 10V10.01M1.73999 7C1.73999 6.46957 1.9507 5.96086 2.32578 5.58579C2.70085 5.21071 3.20956 5 3.73999 5H17.74C18.2704 5 18.7791 5.21071 19.1542 5.58579C19.5293 5.96086 19.74 6.46957 19.74 7V16C19.74 16.5304 19.5293 17.0391 19.1542 17.4142C18.7791 17.7893 18.2704 18 17.74 18H3.73999C3.20956 18 2.70085 17.7893 2.32578 17.4142C1.9507 17.0391 1.73999 16.5304 1.73999 16V7Z" stroke="black" stroke-width="2" stroke-linecap="round" stroke-linejoin="round"/>
<path d="M1.73999 11C4.53157 12.4067 7.61402 13.1394 10.74 13.1394C13.866 13.1394 16.9484 12.4067 19.74 11" stroke="black" stroke-width="2" stroke-linecap="round" stroke-linejoin="round"/>
</svg>
