<svg width="64" height="64" viewBox="0 0 64 64" fill="none" xmlns="http://www.w3.org/2000/svg">
<path d="M56.0833 0.5C57.9398 0.5 59.7202 1.2375 61.033 2.55025C62.3458 3.86301 63.0833 5.64348 63.0833 7.5V56.5C63.0833 58.3565 62.3458 60.137 61.033 61.4497C59.7202 62.7625 57.9398 63.5 56.0833 63.5H7.08325C5.22674 63.5 3.44626 62.7625 2.1335 61.4497C0.82075 60.137 0.083252 58.3565 0.083252 56.5V7.5C0.083252 5.64348 0.82075 3.86301 2.1335 2.55025C3.44626 1.2375 5.22674 0.5 7.08325 0.5H56.0833ZM54.3333 54.75V36.2C54.3333 33.1739 53.1311 30.2717 50.9913 28.1319C48.8515 25.9921 45.9494 24.79 42.9233 24.79C39.9483 24.79 36.4833 26.61 34.8033 29.34V25.455H25.0383V54.75H34.8033V37.495C34.8033 34.8 36.9733 32.595 39.6683 32.595C40.9678 32.595 42.2141 33.1112 43.1331 34.0302C44.052 34.9491 44.5683 36.1954 44.5683 37.495V54.75H54.3333ZM13.6633 19.96C15.2227 19.96 16.7183 19.3405 17.821 18.2378C18.9238 17.1351 19.5433 15.6395 19.5433 14.08C19.5433 10.825 16.9183 8.165 13.6633 8.165C12.0945 8.165 10.59 8.78819 9.48072 9.89746C8.37144 11.0067 7.74825 12.5112 7.74825 14.08C7.74825 17.335 10.4083 19.96 13.6633 19.96ZM18.5283 54.75V25.455H8.83325V54.75H18.5283Z" fill="black"/>
</svg>
