<svg width="21" height="23" viewBox="0 0 21 23" fill="none" xmlns="http://www.w3.org/2000/svg">
<g clip-path="url(#clip0_1437_625)">
<path d="M8.85063 20.9051C9.38088 21.3635 9.93388 21.7824 10.5 22.1912C11.0673 21.7878 11.6177 21.3587 12.1494 20.9051C13.0358 20.1427 13.8699 19.3159 14.6458 18.431C16.4343 16.3823 18.375 13.4123 18.375 10.0784C18.375 8.99496 18.1713 7.92217 17.7756 6.92123C17.3798 5.92029 16.7997 5.01082 16.0685 4.24474C15.3372 3.47865 14.4691 2.87096 13.5136 2.45636C12.5582 2.04176 11.5342 1.82837 10.5 1.82837C9.46584 1.82837 8.44181 2.04176 7.48637 2.45636C6.53093 2.87096 5.6628 3.47865 4.93153 4.24474C4.20027 5.01082 3.6202 5.92029 3.22445 6.92123C2.82869 7.92217 2.625 8.99496 2.625 10.0784C2.625 13.4123 4.56575 16.3814 6.35425 18.431C7.13004 19.3162 7.96422 20.1424 8.85063 20.9051ZM10.5 13.0575C9.74579 13.0575 9.02247 12.7437 8.48917 12.185C7.95586 11.6263 7.65625 10.8685 7.65625 10.0784C7.65625 9.28825 7.95586 8.53048 8.48917 7.97178C9.02247 7.41308 9.74579 7.0992 10.5 7.0992C11.2542 7.0992 11.9775 7.41308 12.5108 7.97178C13.0441 8.53048 13.3438 9.28825 13.3438 10.0784C13.3438 10.8685 13.0441 11.6263 12.5108 12.185C11.9775 12.7437 11.2542 13.0575 10.5 13.0575Z" fill="white"/>
</g>
<defs>
<clipPath id="clip0_1437_625">
<rect width="21" height="22" fill="white" transform="translate(0 0.911713)"/>
</clipPath>
</defs>
</svg>
